<svg width="36" height="36" viewBox="0 0 36 36" fill="none" xmlns="http://www.w3.org/2000/svg">
<path d="M0 10C0 4.47715 4.47715 0 10 0H26C31.5228 0 36 4.47715 36 10V26C36 31.5228 31.5228 36 26 36H10C4.47715 36 0 31.5228 0 26V10Z" fill="#2962FF"/>
<path d="M14.6667 26.3333C15.1269 26.3333 15.5 25.9602 15.5 25.5C15.5 25.0397 15.1269 24.6666 14.6667 24.6666C14.2064 24.6666 13.8333 25.0397 13.8333 25.5C13.8333 25.9602 14.2064 26.3333 14.6667 26.3333Z" stroke="white" stroke-width="1.66667" stroke-linecap="round" stroke-linejoin="round"/>
<path d="M23.8333 26.3333C24.2936 26.3333 24.6667 25.9602 24.6667 25.5C24.6667 25.0397 24.2936 24.6666 23.8333 24.6666C23.3731 24.6666 23 25.0397 23 25.5C23 25.9602 23.3731 26.3333 23.8333 26.3333Z" stroke="white" stroke-width="1.66667" stroke-linecap="round" stroke-linejoin="round"/>
<path d="M9.70834 9.70837H11.375L13.5917 20.0584C13.673 20.4374 13.8839 20.7763 14.1881 21.0166C14.4923 21.2569 14.8708 21.3837 15.2583 21.375H23.4083C23.7877 21.3744 24.1554 21.2444 24.4509 21.0066C24.7463 20.7687 24.9518 20.4371 25.0333 20.0667L26.4083 13.875H12.2667" stroke="white" stroke-width="1.66667" stroke-linecap="round" stroke-linejoin="round"/>
</svg>
