<svg width="52" height="52" viewBox="0 0 52 52" fill="none" xmlns="http://www.w3.org/2000/svg">
<g clip-path="url(#clip0_10017_5808)">
<path d="M51.1689 20.0519L50.068 9.04115C50.0329 8.69127 49.878 8.36413 49.6293 8.11551L43.8841 2.37032C43.6355 2.12159 43.3085 1.96661 42.9585 1.93167L31.9476 0.830633C29.3609 0.571547 26.8228 1.47789 24.9843 3.31627L2.23102 26.0694C0.792289 27.5081 0 29.421 0 31.4556C0 33.4902 0.792289 35.4031 2.23102 36.8417L15.1578 49.7685C16.5965 51.2073 18.5094 51.9995 20.544 51.9995C22.5786 51.9995 24.4915 51.2073 25.9301 49.7685L48.6834 27.0154C50.5218 25.1769 51.4277 22.6388 51.1689 20.0519ZM41.3705 16.3743C39.784 17.9608 37.2117 17.9608 35.6252 16.3743C34.0387 14.7878 34.0387 12.2155 35.6252 10.629C37.2117 9.04247 39.784 9.04247 41.3705 10.629C42.957 12.2155 42.957 14.7878 41.3705 16.3743Z" fill="#2962FF"/>
<path d="M31.5478 22.4375L32.3093 21.676C32.9043 21.0811 32.9043 20.1165 32.3093 19.5216C31.7144 18.9266 30.7499 18.9266 30.1549 19.5216L29.2684 20.4081C29.1293 20.3239 28.9869 20.2409 28.8375 20.1607C27.0105 19.1796 24.7615 19.3308 22.9681 20.5554C21.328 21.6753 20.4398 23.4533 20.6504 25.1956C20.7562 26.0713 21.0079 27.0284 21.4582 28.2183L15.9871 33.6893C15.3858 32.9556 15.1166 32.3104 14.8567 31.0671C14.6846 30.2435 13.8773 29.7158 13.0538 29.8877C12.2302 30.0598 11.7021 30.867 11.8744 31.6906C12.2871 33.665 12.8628 34.7444 13.8257 35.8508L12.9191 36.7573C12.3242 37.3523 12.3242 38.3168 12.9191 38.9118C13.5141 39.5067 14.4786 39.5067 15.0736 38.9118L16.0759 37.9095C17.059 38.5325 18.1676 38.8826 19.3453 38.9324C19.4404 38.9365 19.5354 38.9384 19.6304 38.9384C21.0511 38.9384 22.4572 38.4907 23.6184 37.6638C24.7676 36.8453 25.6068 35.689 25.9813 34.4076C26.3994 32.9769 26.2462 31.437 25.538 29.9547C25.3777 29.6192 25.216 29.2748 25.058 28.9272L29.3482 24.637C29.7562 25.3511 29.7592 25.9195 29.7587 25.9597C29.7059 26.7956 30.3382 27.5181 31.1748 27.5756C32.0141 27.6331 32.7414 26.9994 32.799 26.16C32.8593 25.2844 32.5908 23.8364 31.5478 22.4375ZM22.7888 31.2681C23.8624 33.5155 22.3424 34.832 21.8511 35.182C20.94 35.8309 19.5972 36.139 18.3348 35.6506L22.7657 31.2197C22.7735 31.2359 22.781 31.2517 22.7888 31.2681ZM23.6753 24.83C23.6029 24.2306 23.9998 23.5404 24.6864 23.0716C25.2638 22.6773 26.1378 22.4016 26.9993 22.6773L23.872 25.8045C23.7808 25.4619 23.7121 25.1341 23.6753 24.83ZM38.8577 13.1432C38.2627 12.5482 38.2627 11.5837 38.8577 10.9887L49.4001 0.446215C49.995 -0.148738 50.9596 -0.148738 51.5545 0.446215C52.1495 1.04117 52.1495 2.00571 51.5545 2.60066L41.0122 13.1432C40.4173 13.738 39.4526 13.738 38.8577 13.1432Z" fill="url(#paint0_linear_10017_5808)"/>
</g>
<defs>
<linearGradient id="paint0_linear_10017_5808" x1="13.0036" y1="38.9962" x2="51.5541" y2="0.445713" gradientUnits="userSpaceOnUse">
<stop stop-color="#C3FFE8"/>
<stop offset="0.9973" stop-color="#F0FFF4"/>
</linearGradient>
<clipPath id="clip0_10017_5808">
<rect width="52" height="52" fill="white"/>
</clipPath>
</defs>
</svg>
