<svg width="18" height="15" viewBox="0 0 18 15" fill="none" xmlns="http://www.w3.org/2000/svg">
<path fill-rule="evenodd" clip-rule="evenodd" d="M8.95833 4.16667C7.23244 4.16667 5.83333 5.56578 5.83333 7.29167C5.83333 9.01756 7.23244 10.4167 8.95833 10.4167C10.6842 10.4167 12.0833 9.01756 12.0833 7.29167C12.0833 5.56578 10.6842 4.16667 8.95833 4.16667ZM7.08333 7.29167C7.08333 6.25613 7.9228 5.41667 8.95833 5.41667C9.99387 5.41667 10.8333 6.25613 10.8333 7.29167C10.8333 8.3272 9.99387 9.16667 8.95833 9.16667C7.9228 9.16667 7.08333 8.3272 7.08333 7.29167Z" fill="#46AD92"/>
<path fill-rule="evenodd" clip-rule="evenodd" d="M8.95833 0C5.19656 0 2.66274 2.2535 1.19214 4.16405L1.16562 4.1985C0.833032 4.63044 0.526717 5.02827 0.318906 5.49866C0.0963704 6.00239 0 6.55141 0 7.29167C0 8.03193 0.0963705 8.58094 0.318906 9.08467C0.526718 9.55507 0.833034 9.95289 1.16562 10.3848L1.19214 10.4193C2.66274 12.3298 5.19656 14.5833 8.95833 14.5833C12.7201 14.5833 15.2539 12.3298 16.7245 10.4193L16.751 10.3849C17.0836 9.9529 17.3899 9.55507 17.5978 9.08467C17.8203 8.58094 17.9167 8.03193 17.9167 7.29167C17.9167 6.55141 17.8203 6.00239 17.5978 5.49866C17.3899 5.02826 17.0836 4.63043 16.751 4.19848L16.7245 4.16405C15.2539 2.2535 12.7201 0 8.95833 0ZM2.18268 4.9265C3.54053 3.16243 5.7503 1.25 8.95833 1.25C12.1664 1.25 14.3761 3.16243 15.734 4.9265C16.0995 5.40132 16.3136 5.68505 16.4544 6.00379C16.586 6.30168 16.6667 6.66578 16.6667 7.29167C16.6667 7.91755 16.586 8.28165 16.4544 8.57954C16.3136 8.89829 16.0995 9.18201 15.734 9.65683C14.3761 11.4209 12.1664 13.3333 8.95833 13.3333C5.7503 13.3333 3.54053 11.4209 2.18268 9.65683C1.8172 9.18201 1.60311 8.89829 1.4623 8.57954C1.3307 8.28165 1.25 7.91755 1.25 7.29167C1.25 6.66578 1.3307 6.30168 1.4623 6.00379C1.60311 5.68505 1.8172 5.40133 2.18268 4.9265Z" fill="#46AD92"/>
</svg>
