<svg width="52" height="52" viewBox="0 0 52 52" fill="none" xmlns="http://www.w3.org/2000/svg">
<g clip-path="url(#clip0_10017_5834)">
<path d="M21.434 39.226C23.0937 37.6789 23.3492 35.2556 22.0048 33.8135C20.6605 32.3713 18.2252 32.4563 16.5656 34.0034C14.9059 35.5505 14.6504 37.9738 15.9948 39.416C17.3392 40.8582 19.7744 40.7731 21.434 39.226Z" fill="#2962FF"/>
<path d="M43.3929 39.228C45.0526 37.6809 45.3081 35.2576 43.9637 33.8154C42.6193 32.3732 40.1841 32.4583 38.5245 34.0054C36.8648 35.5525 36.6093 37.9758 37.9536 39.4179C39.298 40.8601 41.7333 40.7751 43.3929 39.228Z" fill="#2962FF"/>
<path d="M4.01914 20.2908C4.01914 19.3331 3.24272 18.5566 2.28496 18.5566C1.3272 18.5566 0.550781 19.3331 0.550781 20.2908C0.550781 21.2486 1.3272 22.025 2.28496 22.025C3.24272 22.025 4.01914 21.2486 4.01914 20.2908Z" fill="#2962FF"/>
<path d="M35.1903 36.2526C35.8068 33.2058 38.6851 30.7845 41.7787 30.7845C44.7575 30.7845 46.9045 33.0301 46.8456 35.9175C50.0672 36.0018 50.964 31.7595 50.964 31.7595C51.2351 30.5733 51.6404 28.2607 51.9796 25.9908C52.0908 25.29 52.0053 24.572 51.7328 23.9169C50.8907 21.951 49.873 20.0652 48.692 18.2822C47.5748 16.6155 45.701 15.6284 43.5621 15.5928C42.2865 15.5725 41.0342 15.5603 40.0887 15.5603L40.0805 15.5522C39.9587 13.5128 38.4718 11.9508 36.3847 11.7639C35.0268 11.643 29.648 11.5547 27.0663 11.5547C26.0405 11.5547 24.5689 11.5689 23.08 11.5933V11.5872H23.0678H5.16641C4.93857 11.5871 4.71293 11.6318 4.50241 11.719C4.29189 11.8061 4.10061 11.9339 3.9395 12.095C3.77839 12.2561 3.65062 12.4474 3.56349 12.6579C3.47636 12.8684 3.43158 13.094 3.43172 13.3219V13.33C3.43172 13.7879 3.61362 14.2271 3.93742 14.5509C4.26121 14.8747 4.70037 15.0566 5.15828 15.0566H8.76679C9.20131 15.0886 9.60764 15.2837 9.90431 15.6028C10.201 15.9219 10.366 16.3413 10.3664 16.777V16.7862C10.3671 17.0142 10.3228 17.2402 10.236 17.4511C10.1493 17.662 10.0218 17.8538 9.86084 18.0153C9.69991 18.1769 9.50869 18.3052 9.29813 18.3928C9.08758 18.4804 8.86181 18.5257 8.63375 18.5259H6.78328C6.32348 18.5259 5.88252 18.7086 5.55739 19.0337C5.23226 19.3588 5.04961 19.7998 5.04961 20.2596C5.04947 20.4874 5.09422 20.7129 5.18128 20.9234C5.26835 21.1338 5.39603 21.3251 5.55703 21.4862C5.71803 21.6472 5.90919 21.775 6.1196 21.8622C6.33 21.9494 6.55552 21.9943 6.78328 21.9943H8.63375C9.09382 21.9943 9.53504 22.1771 9.86036 22.5024C10.1857 22.8277 10.3684 23.2689 10.3684 23.729C10.3684 24.189 10.1857 24.6303 9.86036 24.9556C9.53504 25.2809 9.09382 25.4637 8.63375 25.4637H1.71125C1.25136 25.4637 0.810287 25.6463 0.485 25.9714C0.159712 26.2965 -0.0231682 26.7374 -0.0234375 27.1973C-0.0234375 27.6574 0.159324 28.0986 0.484641 28.4239C0.809958 28.7493 1.25118 28.932 1.71125 28.932H8.63375C9.09382 28.932 9.53504 29.1148 9.86036 29.4401C10.1857 29.7654 10.3684 30.2066 10.3684 30.6667C10.3679 31.1264 10.1849 31.5671 9.85964 31.892C9.53438 32.2169 9.09346 32.3994 8.63375 32.3994H6.49281C6.03301 32.3994 5.59205 32.582 5.26692 32.9071C4.94179 33.2323 4.75914 33.6732 4.75914 34.133C4.75914 34.5929 4.94176 35.034 5.26686 35.3593C5.59196 35.6846 6.03292 35.8675 6.49281 35.8677L13.3239 35.8626L13.8916 34.4479C15.0545 32.3029 17.3681 30.7835 19.8178 30.7835C22.9124 30.7835 25.1102 33.2068 24.8685 36.2557H35.1893L35.1903 36.2526ZM17.9846 19.3334H15.6568C15.6546 19.3335 15.6525 19.3344 15.6509 19.3359C15.6492 19.3374 15.6481 19.3393 15.6477 19.3415L15.4334 20.8649C15.433 20.8661 15.433 20.8674 15.4333 20.8687C15.4335 20.8699 15.4341 20.871 15.4349 20.872C15.4357 20.873 15.4367 20.8738 15.4378 20.8743C15.439 20.8749 15.4402 20.8751 15.4415 20.8751H17.1741C17.2592 20.8727 17.3437 20.8893 17.4215 20.9236C17.4993 20.958 17.5685 21.0094 17.624 21.0739C17.6794 21.1384 17.7198 21.2145 17.7421 21.2966C17.7645 21.3787 17.7682 21.4647 17.753 21.5484C17.7234 21.7325 17.6304 21.9004 17.4903 22.0233C17.3502 22.1462 17.1716 22.2164 16.9852 22.2218H15.2505C15.2484 22.2217 15.2464 22.2224 15.2447 22.2237C15.243 22.225 15.2419 22.2268 15.2414 22.2289L14.9306 24.4419C14.9009 24.626 14.808 24.7939 14.6679 24.9168C14.5277 25.0397 14.3491 25.1099 14.1628 25.1153C14.0778 25.1178 13.9933 25.1012 13.9155 25.0668C13.8377 25.0324 13.7686 24.981 13.7132 24.9165C13.6578 24.852 13.6176 24.7758 13.5954 24.6937C13.5732 24.6116 13.5696 24.5256 13.5849 24.4419L14.3913 18.7016C14.4233 18.5073 14.5218 18.3301 14.67 18.2004C14.8183 18.0707 15.007 17.9966 15.2038 17.9907H18.1725C18.2575 17.9883 18.342 18.0048 18.4198 18.0392C18.4976 18.0736 18.5667 18.125 18.6221 18.1895C18.6775 18.2541 18.7177 18.3302 18.7399 18.4123C18.7621 18.4944 18.7657 18.5804 18.7504 18.6641C18.7203 18.8472 18.6274 19.0141 18.4877 19.1362C18.348 19.2583 18.1701 19.328 17.9846 19.3334ZM24.2063 18.4477C24.4482 18.6623 24.6183 18.9459 24.6938 19.2602C24.7783 19.6163 24.7921 19.9855 24.7344 20.347C24.6638 20.9093 24.4337 21.4397 24.0712 21.8755C23.8499 22.1372 23.5688 22.3417 23.2516 22.4716C23.2502 22.4731 23.2494 22.4751 23.2494 22.4772C23.2494 22.4793 23.2502 22.4813 23.2516 22.4828L23.8285 24.1474C23.9839 24.5943 23.5848 25.1153 23.0881 25.1153H23.0556C22.9351 25.1188 22.8166 25.0839 22.7173 25.0157C22.618 24.9474 22.543 24.8492 22.5031 24.7355L21.8054 22.7042C21.8044 22.7027 21.803 22.7014 21.8014 22.7005C21.7999 22.6997 21.7981 22.6992 21.7962 22.6991H20.3134C20.3114 22.6993 20.3094 22.7 20.3078 22.7013C20.3061 22.7025 20.3049 22.7043 20.3043 22.7062L20.0605 24.4409C20.0309 24.625 19.9379 24.7929 19.7978 24.9158C19.6577 25.0387 19.4791 25.1089 19.2927 25.1143C19.2077 25.1167 19.1232 25.1002 19.0454 25.0658C18.9677 25.0314 18.8985 24.98 18.8431 24.9155C18.7878 24.8509 18.7475 24.7748 18.7253 24.6927C18.7031 24.6106 18.6995 24.5246 18.7148 24.4409L19.5212 18.7006C19.5532 18.5063 19.6517 18.3291 19.7999 18.1994C19.9482 18.0697 20.1369 17.9956 20.3337 17.9897H22.6291C22.6291 17.9897 23.6366 17.9582 24.2063 18.4477ZM30.5235 18.6163C30.4959 18.7882 30.4092 18.9451 30.2783 19.0599C30.1474 19.1746 29.9805 19.2401 29.8065 19.245H27.1364C27.1343 19.2451 27.1324 19.2459 27.1307 19.2471C27.1291 19.2484 27.1279 19.2501 27.1273 19.2521L26.915 20.7593C26.9147 20.7605 26.9146 20.7618 26.9149 20.763C26.9152 20.7643 26.9157 20.7654 26.9165 20.7664C26.9173 20.7674 26.9183 20.7682 26.9195 20.7687C26.9206 20.7692 26.9219 20.7695 26.9231 20.7695H28.997C29.0764 20.7671 29.1554 20.7825 29.2281 20.8146C29.3008 20.8467 29.3654 20.8946 29.4172 20.9549C29.469 21.0151 29.5066 21.0862 29.5274 21.1629C29.5482 21.2396 29.5516 21.32 29.5373 21.3981C29.5097 21.57 29.423 21.7269 29.2921 21.8416C29.1612 21.9564 28.9943 22.0219 28.8203 22.0268H26.7454C26.7433 22.0269 26.7413 22.0276 26.7397 22.0289C26.7381 22.0302 26.7369 22.0319 26.7362 22.0339L26.4813 23.8478C26.4813 23.8503 26.4822 23.8528 26.4839 23.8547C26.4856 23.8565 26.4879 23.8577 26.4905 23.858H29.1585C29.2379 23.8556 29.3169 23.871 29.3896 23.9031C29.4623 23.9352 29.5269 23.9831 29.5787 24.0434C29.6304 24.1037 29.6681 24.1747 29.6889 24.2514C29.7097 24.3281 29.7131 24.4085 29.6988 24.4866C29.6712 24.6585 29.5845 24.8154 29.4536 24.9302C29.3227 25.0449 29.1558 25.1104 28.9818 25.1153H25.6709C25.5815 25.1166 25.493 25.0982 25.4116 25.0614C25.3301 25.0246 25.2578 24.9704 25.1996 24.9026C25.1415 24.8347 25.099 24.7549 25.0751 24.6688C25.0512 24.5828 25.0466 24.4925 25.0615 24.4044L25.8628 18.7047C25.8948 18.5103 25.9933 18.3331 26.1415 18.2034C26.2897 18.0738 26.4784 17.9996 26.6753 17.9937H29.9852C30.0639 17.9919 30.1419 18.0074 30.2139 18.0393C30.2858 18.0712 30.3498 18.1186 30.4012 18.1781C30.4527 18.2376 30.4903 18.3077 30.5115 18.3835C30.5326 18.4593 30.5367 18.5388 30.5235 18.6163ZM36.0698 18.6163C36.0422 18.7882 35.9555 18.9451 35.8246 19.0599C35.6937 19.1746 35.5268 19.2401 35.3528 19.245H32.6827C32.6807 19.2451 32.6787 19.2459 32.677 19.2471C32.6754 19.2484 32.6742 19.2501 32.6736 19.2521L32.4623 20.7593C32.462 20.7605 32.462 20.7618 32.4623 20.763C32.4625 20.7643 32.4631 20.7654 32.4639 20.7664C32.4646 20.7674 32.4657 20.7682 32.4668 20.7687C32.4679 20.7692 32.4692 20.7695 32.4705 20.7695H34.5444C34.6238 20.7671 34.7027 20.7825 34.7754 20.8146C34.8481 20.8467 34.9127 20.8946 34.9645 20.9549C35.0163 21.0151 35.054 21.0862 35.0748 21.1629C35.0956 21.2396 35.0989 21.32 35.0847 21.3981C35.0571 21.57 34.9703 21.7269 34.8394 21.8416C34.7085 21.9564 34.5417 22.0219 34.3676 22.0268H32.2917C32.2896 22.0269 32.2877 22.0276 32.286 22.0289C32.2844 22.0302 32.2832 22.0319 32.2826 22.0339L32.0276 23.8478C32.0276 23.8503 32.0286 23.8528 32.0303 23.8547C32.0319 23.8565 32.0343 23.8577 32.0368 23.858H34.7048C34.7843 23.8556 34.8632 23.871 34.9359 23.9031C35.0086 23.9352 35.0732 23.9831 35.125 24.0434C35.1768 24.1037 35.2144 24.1747 35.2352 24.2514C35.256 24.3281 35.2594 24.4085 35.2451 24.4866C35.2175 24.6585 35.1308 24.8154 34.9999 24.9302C34.869 25.0449 34.7021 25.1104 34.5281 25.1153H31.2172C31.1278 25.1166 31.0393 25.0982 30.9579 25.0614C30.8765 25.0246 30.8041 24.9704 30.746 24.9026C30.6878 24.8347 30.6453 24.7549 30.6214 24.6688C30.5976 24.5828 30.5929 24.4925 30.6078 24.4044L31.4091 18.7047C31.4411 18.5103 31.5396 18.3331 31.6878 18.2034C31.8361 18.0738 32.0248 17.9996 32.2216 17.9937H35.5316C35.6102 17.9919 35.6883 18.0074 35.7602 18.0393C35.8321 18.0712 35.8961 18.1186 35.9475 18.1781C35.999 18.2376 36.0366 18.3077 36.0578 18.3835C36.0789 18.4593 36.083 18.5388 36.0698 18.6163ZM39.9292 17.9653C40.8362 17.9653 42.0102 17.9775 43.1884 17.9968C44.6163 18.0202 45.8655 18.6762 46.6151 19.7955C47.4157 21.0024 48.1353 22.2612 48.7692 23.5634C49.1044 24.2459 48.4879 25.1346 47.6805 25.1346H39.0223L39.9292 17.9653Z" fill="#2962FF"/>
<path d="M22.0852 21.443H20.4805L20.7852 19.2451H22.3888C22.3888 19.2451 23.5659 19.169 23.373 20.3441C23.378 20.3441 23.243 21.443 22.0852 21.443Z" fill="#2962FF"/>
</g>
<defs>
<clipPath id="clip0_10017_5834">
<rect width="52" height="52" fill="white"/>
</clipPath>
</defs>
</svg>
